<svg width="2560" height="2880" viewBox="0 0 2560 2880" fill="none" xmlns="http://www.w3.org/2000/svg">
<path d="M2560 1440H0V2880H2560V1440Z" fill="#121212"/>
<path d="M2123 2228C2317.4 2228 2475 2070.4 2475 1876C2475 1681.6 2317.4 1524 2123 1524C1928.6 1524 1771 1681.6 1771 1876C1771 2070.4 1928.6 2228 2123 2228Z" stroke="#24DB90" stroke-width="2"/>
<path d="M936 2562C1032.65 2562 1111 2483.65 1111 2387C1111 2290.35 1032.65 2212 936 2212C839.35 2212 761 2290.35 761 2387C761 2483.65 839.35 2562 936 2562Z" stroke="#24DB90" stroke-width="2"/>
<path d="M386 2128C551.133 2128 685 1994.13 685 1829C685 1663.87 551.133 1530 386 1530C220.867 1530 87 1663.87 87 1829C87 1994.13 220.867 2128 386 2128Z" stroke="#24DB90" stroke-width="2"/>
<path d="M2560 0H0V1440H2560V0Z" fill="#121212"/>
<path d="M1681 1321C1875.4 1321 2033 1163.4 2033 969C2033 774.596 1875.4 617 1681 617C1486.6 617 1329 774.596 1329 969C1329 1163.4 1486.6 1321 1681 1321Z" stroke="#24DB90" stroke-width="2"/>
<path d="M1192 582C1288.65 582 1367 503.65 1367 407C1367 310.35 1288.65 232 1192 232C1095.35 232 1017 310.35 1017 407C1017 503.65 1095.35 582 1192 582Z" stroke="#24DB90" stroke-width="2"/>
<path d="M464 1180C611.46 1180 731 1060.46 731 913C731 765.54 611.46 646 464 646C316.54 646 197 765.54 197 913C197 1060.46 316.54 1180 464 1180Z" stroke="#24DB90" stroke-width="2"/>
<path d="M2154 717C2343.99 717 2498 562.986 2498 373C2498 183.014 2343.99 29 2154 29C1964.01 29 1810 183.014 1810 373C1810 562.986 1964.01 717 2154 717Z" stroke="#24DB90" stroke-width="2"/>
</svg>
