<svg xmlns="http://www.w3.org/2000/svg" viewBox="0 0 175.39 132.91"><defs><style>.cls-1{fill:#5fe5ae;}</style></defs><g id="Layer_2" data-name="Layer 2"><g id="Layer_2-2" data-name="Layer 2"><path class="cls-1" d="M11.91,98.6c.16-6.35,2.6-12.86,7.71-16.87L9.39,80.42c4.44,10.46,13.41,18.83,23.09,24.51,4,2.32,9.84.28,10.88-4.43,2.79-12.53,7.09-24.85,11.2-37S63,39,67.86,26.92H49.77A318.65,318.65,0,0,0,82.14,128.26c3.14,6.11,13.32,6.29,16.41,0a301.75,301.75,0,0,0,23.51-67l-15.67,4.14a168.24,168.24,0,0,1,21.71,37c1.45,3.34,6.08,5,9.36,4.49,4-.6,6.35-3.11,7.82-6.73C157,71.33,167.39,41.74,175.05,11.62,178-.08,160.26-5,157,6.64c-8.49,30-18,59.56-29.82,88.46l17.18-2.25A181.77,181.77,0,0,0,119.64,52.1c-4.36-5.52-14.24-2.27-15.66,4.14a281.94,281.94,0,0,1-21.84,62.43H98.55A299.31,299.31,0,0,1,67.86,21.94c-.57-4-5.32-6.89-9-6.89-4.44,0-7.49,3-9,6.89A338.78,338.78,0,0,0,37.23,58.71c-3.4,12.51-5.52,25.18-8.16,37.85L40,92.13c-8-4.54-14-10.92-19.32-18.29-2.2-3-7.35-4.89-10.23-1.32C4.15,80.32,0,88.31,0,98.6c0,7.68,11.73,7.67,11.91,0Z"/></g></g></svg>