<svg width="40" height="40" viewBox="0 0 40 40" fill="none" xmlns="http://www.w3.org/2000/svg">
<path fill-rule="evenodd" clip-rule="evenodd" d="M20 40C8.972 40 -7.84357e-07 31.028 -1.74846e-06 20C-2.71255e-06 8.972 8.972 2.71255e-06 20 1.74846e-06C31.028 7.84357e-07 40 8.972 40 20C40 31.028 31.028 40 20 40ZM20 37C29.374 37 37 29.374 37 20C37 10.626 29.374 3 20 3C10.626 3 3 10.626 3 20C3 29.374 10.626 37 20 37ZM19.9922 14.4082C18.8862 14.4082 17.9922 13.5142 17.9922 12.4082C17.9922 11.3022 18.8862 10.4082 19.9922 10.4082C21.0982 10.4082 22.0022 11.3022 22.0022 12.4082C22.0022 13.5142 21.1162 14.4082 20.0122 14.4082L19.9922 14.4082ZM20.0118 29.092C19.1838 29.092 18.5118 28.42 18.5118 27.592L18.5118 18.754C18.5118 17.926 19.1838 17.254 20.0118 17.254C20.8398 17.254 21.5118 17.926 21.5118 18.754L21.5118 27.592C21.5118 28.42 20.8398 29.092 20.0118 29.092Z" fill="#5FE5AE"/>
</svg>
