<svg width="40" height="40" viewBox="0 0 40 40" fill="none" xmlns="http://www.w3.org/2000/svg">
<path d="M20 40C8.94 40 -7.83483e-07 31.038 -1.74846e-06 20C-2.71378e-06 8.958 8.94 2.71535e-06 20 1.74846e-06C31.04 7.83308e-07 40 8.958 40 20C40 31.038 31.04 40 20 40ZM20 14.138C20.96 14.138 21.74 13.358 21.74 12.398C21.74 11.438 20.96 10.638 19.98 10.638C19.02 10.638 18.24 11.438 18.24 12.398C18.24 13.358 19.02 14.138 20 14.138ZM20 29.34C20.96 29.34 21.76 28.538 21.76 27.58L21.76 18.74C21.76 17.778 20.96 17 20 17C19.04 17 18.26 17.778 18.26 18.74L18.26 27.58C18.26 28.538 19.04 29.34 20 29.34Z" fill="#5FE5AE"/>
</svg>
