<svg width="33" height="36" viewBox="0 0 33 36" fill="none" xmlns="http://www.w3.org/2000/svg">
<path fill-rule="evenodd" clip-rule="evenodd" d="M22.8402 0.5C28.3422 0.5 32.0382 4.26775 32.0382 9.87475V25.9678C32.0382 31.6238 28.4559 35.3022 22.9119 35.3372L9.4492 35.3425C3.9472 35.3425 0.249451 31.5748 0.249451 25.9678V9.87475C0.249451 4.217 3.8317 0.54025 9.3757 0.507L22.8384 0.5H22.8402ZM22.8402 3.125L9.38445 3.132C5.31045 3.1565 2.87445 5.6765 2.87445 9.87475V25.9678C2.87445 30.194 5.3332 32.7175 9.44745 32.7175L22.9032 32.7122C26.9772 32.6877 29.4132 30.1643 29.4132 25.9678V9.87475C29.4132 5.6485 26.9562 3.125 22.8402 3.125ZM22.5026 24.079C23.2271 24.079 23.8151 24.667 23.8151 25.3915C23.8151 26.116 23.2271 26.704 22.5026 26.704H9.86762C9.14312 26.704 8.55512 26.116 8.55512 25.3915C8.55512 24.667 9.14312 24.079 9.86762 24.079H22.5026ZM22.5026 16.7526C23.2271 16.7526 23.8151 17.3406 23.8151 18.0651C23.8151 18.7896 23.2271 19.3776 22.5026 19.3776H9.86762C9.14312 19.3776 8.55512 18.7896 8.55512 18.0651C8.55512 17.3406 9.14312 16.7526 9.86762 16.7526H22.5026ZM14.6883 9.4432C15.4128 9.4432 16.0008 10.0312 16.0008 10.7557C16.0008 11.4802 15.4128 12.0682 14.6883 12.0682H9.8671C9.1426 12.0682 8.5546 11.4802 8.5546 10.7557C8.5546 10.0312 9.1426 9.4432 9.8671 9.4432H14.6883Z" fill="#5FE5AE"/>
</svg>
