<svg width="32" height="36" viewBox="0 0 32 36" fill="none" xmlns="http://www.w3.org/2000/svg">
<path d="M23.3342 0.5C28.74 0.5 31.75 3.615 31.75 8.9525V27.03C31.75 32.455 28.74 35.5 23.3342 35.5H8.6675C3.3475 35.5 0.25 32.455 0.25 27.03V8.9525C0.25 3.615 3.3475 0.5 8.6675 0.5H23.3342ZM9.14 24.545C8.615 24.4925 8.1075 24.7375 7.8275 25.1925C7.5475 25.63 7.5475 26.2075 7.8275 26.6625C8.1075 27.1 8.615 27.3625 9.14 27.2925H22.86C23.5583 27.2225 24.085 26.6257 24.085 25.9275C24.085 25.21 23.5583 24.615 22.86 24.545H9.14ZM22.86 16.5632H9.14C8.38575 16.5632 7.775 17.1775 7.775 17.93C7.775 18.6825 8.38575 19.295 9.14 19.295H22.86C23.6125 19.295 24.225 18.6825 24.225 17.93C24.225 17.1775 23.6125 16.5632 22.86 16.5632ZM14.3708 8.6375H9.14V8.655C8.38575 8.655 7.775 9.2675 7.775 10.02C7.775 10.7725 8.38575 11.385 9.14 11.385H14.3708C15.125 11.385 15.7375 10.7725 15.7375 10.0007C15.7375 9.25 15.125 8.6375 14.3708 8.6375Z" fill="#5FE5AE"/>
</svg>
