<svg width="37" height="39" viewBox="0 0 37 39" fill="none" xmlns="http://www.w3.org/2000/svg">
<path fill-rule="evenodd" clip-rule="evenodd" d="M21.0044 25.7598C23.1114 25.7598 24.8264 27.4625 24.8264 29.5555V34.9385C24.8264 35.3883 25.1869 35.7488 25.6489 35.7593H28.9844C31.6129 35.7593 33.7496 33.6488 33.7496 31.0553V15.7883C33.7374 14.8958 33.3121 14.0558 32.5824 13.4975L21.0446 4.296C19.4959 3.06925 17.3294 3.06925 15.7754 4.2995L4.31638 13.494C3.55863 14.0698 3.13338 14.9098 3.12463 15.818V31.0553C3.12463 33.6488 5.26138 35.7593 7.88988 35.7593H11.2569C11.7311 35.7593 12.1161 35.383 12.1161 34.921C12.1161 34.8195 12.1284 34.718 12.1494 34.6218V29.5555C12.1494 27.4748 13.8539 25.7738 15.9451 25.7598H21.0044ZM28.9844 38.3843H25.6174C23.6889 38.3388 22.2014 36.825 22.2014 34.9385V29.5555C22.2014 28.9098 21.6641 28.3848 21.0044 28.3848H15.9539C15.3081 28.3883 14.7744 28.915 14.7744 29.5555V34.921C14.7744 35.0523 14.7569 35.1783 14.7201 35.2973C14.5311 37.0298 13.0506 38.3843 11.2569 38.3843H7.88988C3.81413 38.3843 0.499634 35.096 0.499634 31.0553V15.8058C0.517134 14.0663 1.31863 12.4738 2.70288 11.4255L14.1391 2.24675C16.6574 0.251749 20.1661 0.251749 22.6791 2.24325L34.1976 11.4308C35.5504 12.4615 36.3519 14.0505 36.3746 15.769V31.0553C36.3746 35.096 33.0601 38.3843 28.9844 38.3843Z" fill="#5FE5AE"/>
</svg>
