<svg width="34" height="36" viewBox="0 0 34 36" fill="none" xmlns="http://www.w3.org/2000/svg">
<path d="M11.9859 33.3533V28.0023C11.9859 26.6364 13.1013 25.529 14.4773 25.529H19.5071C20.1678 25.529 20.8015 25.7896 21.2688 26.2534C21.736 26.7173 21.9985 27.3464 21.9985 28.0023V33.3533C21.9943 33.9212 22.2186 34.4673 22.6216 34.8703C23.0247 35.2733 23.5731 35.5 24.1451 35.5H27.5767C29.1794 35.5041 30.7178 34.875 31.8525 33.7514C32.9873 32.6278 33.625 31.1022 33.625 29.5112V14.267C33.625 12.9818 33.0511 11.7627 32.0581 10.9382L20.3845 1.68277C18.3539 0.059983 15.4444 0.112379 13.4744 1.80721L2.06727 10.9382C1.0273 11.7384 0.405717 12.9611 0.375 14.267V29.4956C0.375 32.8117 3.08292 35.5 6.4233 35.5H9.77651C10.9646 35.5 11.9302 34.5484 11.9389 33.3689L11.9859 33.3533Z" fill="#5FE5AE"/>
</svg>
