<svg width="34" height="34" viewBox="0 0 34 34" fill="none" xmlns="http://www.w3.org/2000/svg">
<path fill-rule="evenodd" clip-rule="evenodd" d="M24.4104 0C30.1461 0 34 4.02623 34 10.0181V23.9819C34 29.9738 30.1461 34 24.4104 34H9.58958C3.85386 34 0 29.9738 0 23.9819V10.0181C0 4.02623 3.85386 0 9.58958 0H24.4104ZM24.4104 2.37209H9.58958C5.20595 2.37209 2.37209 5.372 2.37209 10.0181V23.9819C2.37209 28.628 5.20595 31.6279 9.58958 31.6279H24.4104C28.7956 31.6279 31.6279 28.628 31.6279 23.9819V10.0181C31.6279 5.372 28.7956 2.37209 24.4104 2.37209ZM17 10.006C17.6547 10.006 18.186 10.5373 18.186 11.192V15.7981L22.7982 15.7985C23.4529 15.7985 23.9842 16.3298 23.9842 16.9845C23.9842 17.6392 23.4529 18.1705 22.7982 18.1705L18.186 18.1702V22.7789C18.186 23.4336 17.6547 23.9649 17 23.9649C16.3453 23.9649 15.814 23.4336 15.814 22.7789V18.1702L11.2018 18.1705C10.5455 18.1705 10.0158 17.6392 10.0158 16.9845C10.0158 16.3298 10.5455 15.7985 11.2018 15.7985L15.814 15.7981V11.192C15.814 10.5373 16.3453 10.006 17 10.006Z" fill="#5FE5AE"/>
</svg>
