<svg width="41" height="41" viewBox="0 0 41 41" fill="none" xmlns="http://www.w3.org/2000/svg">
<path d="M30.3001 0.483215C37.1001 0.483215 40.9801 4.32322 40.9801 11.1432V29.8232C40.9801 36.6032 37.1201 40.4832 30.3201 40.4832H11.6401C4.8201 40.4832 0.980095 36.6032 0.980095 29.8232V11.1432C0.980095 4.32322 4.8201 0.483215 11.6401 0.483215H30.3001ZM20.9601 11.5032C20.0401 11.5032 19.3001 12.2432 19.3001 13.1632V18.8032H13.6401C13.2001 18.8032 12.7801 18.9832 12.4601 19.2832C12.1601 19.6032 11.9801 20.0212 11.9801 20.4632C11.9801 21.3832 12.7201 22.1232 13.6401 22.1432H19.3001V27.8032C19.3001 28.7232 20.0401 29.4632 20.9601 29.4632C21.8801 29.4632 22.6201 28.7232 22.6201 27.8032V22.1432H28.3001C29.2201 22.1232 29.9601 21.3832 29.9601 20.4632C29.9601 19.5432 29.2201 18.8032 28.3001 18.8032H22.6201V13.1632C22.6201 12.2432 21.8801 11.5032 20.9601 11.5032Z" fill="#5FE5AE"/>
</svg>
