<svg width="24" height="24" viewBox="0 0 24 24" fill="none" xmlns="http://www.w3.org/2000/svg">
<path d="M12 2C9.35831 2.03369 6.8343 3.09807 4.96618 4.96618C3.09807 6.8343 2.03369 9.35831 2 12C2.01235 13.5389 2.37972 15.0542 3.07351 16.4279C3.7673 17.8016 4.76879 18.9967 6 19.92V20H6.1C7.79318 21.2975 9.86685 22.0006 12 22.0006C14.1332 22.0006 16.2068 21.2975 17.9 20H18V19.92C19.2312 18.9967 20.2327 17.8016 20.9265 16.4279C21.6203 15.0542 21.9877 13.5389 22 12C21.9663 9.35831 20.9019 6.8343 19.0338 4.96618C17.1657 3.09807 14.6417 2.03369 12 2V2ZM8.07 18.93C8.21599 18.2614 8.58615 17.6629 9.11908 17.2336C9.65202 16.8044 10.3157 16.5702 11 16.57H13C13.6843 16.5702 14.348 16.8044 14.8809 17.2336C15.4138 17.6629 15.784 18.2614 15.93 18.93C14.7389 19.6308 13.382 20.0004 12 20.0004C10.618 20.0004 9.26113 19.6308 8.07 18.93V18.93ZM17.61 17.64C17.2296 16.7309 16.5891 15.9546 15.7689 15.4084C14.9487 14.8622 13.9854 14.5705 13 14.57H11C10.0146 14.5705 9.05127 14.8622 8.23108 15.4084C7.41088 15.9546 6.77037 16.7309 6.39 17.64C5.64066 16.903 5.0439 16.0255 4.63381 15.0578C4.22373 14.0901 4.00835 13.051 4 12C4.02594 9.88633 4.87712 7.86653 6.37183 6.37183C7.86653 4.87712 9.88633 4.02594 12 4C14.1137 4.02594 16.1335 4.87712 17.6282 6.37183C19.1229 7.86653 19.9741 9.88633 20 12C19.9916 13.051 19.7763 14.0901 19.3662 15.0578C18.9561 16.0255 18.3593 16.903 17.61 17.64V17.64Z" fill="#404040"/>
<path d="M12 5.99999C11.4713 5.98768 10.9457 6.08272 10.4548 6.27938C9.96394 6.47604 9.51806 6.77023 9.14414 7.14414C8.77023 7.51806 8.47604 7.96394 8.27938 8.45481C8.08272 8.94568 7.98768 9.47134 7.99999 9.99999C7.98768 10.5286 8.08272 11.0543 8.27938 11.5452C8.47604 12.036 8.77023 12.4819 9.14414 12.8558C9.51806 13.2298 9.96394 13.5239 10.4548 13.7206C10.9457 13.9173 11.4713 14.0123 12 14C12.5286 14.0123 13.0543 13.9173 13.5452 13.7206C14.036 13.5239 14.4819 13.2298 14.8558 12.8558C15.2298 12.4819 15.5239 12.036 15.7206 11.5452C15.9173 11.0543 16.0123 10.5286 16 9.99999C16.0123 9.47134 15.9173 8.94568 15.7206 8.45481C15.5239 7.96394 15.2298 7.51806 14.8558 7.14414C14.4819 6.77023 14.036 6.47604 13.5452 6.27938C13.0543 6.08272 12.5286 5.98768 12 5.99999V5.99999ZM12 12C11.7339 12.0129 11.4681 11.9699 11.2197 11.874C10.9712 11.778 10.7455 11.6311 10.5572 11.4428C10.3688 11.2544 10.222 11.0288 10.126 10.7803C10.0301 10.5318 9.98713 10.266 9.99999 9.99999C9.98713 9.73394 10.0301 9.46814 10.126 9.21967C10.222 8.97119 10.3688 8.74554 10.5572 8.55719C10.7455 8.36884 10.9712 8.22198 11.2197 8.12602C11.4681 8.03006 11.7339 7.98713 12 7.99999C12.266 7.98713 12.5318 8.03006 12.7803 8.12602C13.0288 8.22198 13.2544 8.36884 13.4428 8.55719C13.6311 8.74554 13.778 8.97119 13.874 9.21967C13.9699 9.46814 14.0129 9.73394 14 9.99999C14.0129 10.266 13.9699 10.5318 13.874 10.7803C13.778 11.0288 13.6311 11.2544 13.4428 11.4428C13.2544 11.6311 13.0288 11.778 12.7803 11.874C12.5318 11.9699 12.266 12.0129 12 12Z" fill="#404040"/>
</svg>
